<svg width="21" height="21" viewBox="0 0 21 21" fill="none" xmlns="http://www.w3.org/2000/svg">
<path d="M8.13338 9.55832C8.05005 9.54999 7.95005 9.54999 7.85838 9.55832C5.87505 9.49166 4.30005 7.86666 4.30005 5.86666C4.30005 3.82499 5.95005 2.16666 8.00005 2.16666C10.0417 2.16666 11.7 3.82499 11.7 5.86666C11.6917 7.86666 10.1167 9.49166 8.13338 9.55832Z" stroke-linecap="round" stroke-linejoin="round"/>
<path d="M14.175 3.83334C15.7916 3.83334 17.0917 5.14168 17.0917 6.75001C17.0917 8.32501 15.8417 9.60834 14.2833 9.66668C14.2167 9.65834 14.1417 9.65834 14.0667 9.66668" stroke-linecap="round" stroke-linejoin="round"/>
<path d="M3.96672 12.6333C1.95006 13.9833 1.95006 16.1833 3.96672 17.525C6.25839 19.0583 10.0167 19.0583 12.3084 17.525C14.3251 16.175 14.3251 13.975 12.3084 12.6333C10.0251 11.1083 6.26672 11.1083 3.96672 12.6333Z" stroke-linecap="round" stroke-linejoin="round"/>
<path d="M15.7833 17.1667C16.3833 17.0417 16.95 16.8 17.4167 16.4417C18.7167 15.4667 18.7167 13.8583 17.4167 12.8833C16.9583 12.5333 16.4 12.3 15.8083 12.1667" stroke-linecap="round" stroke-linejoin="round"/>
</svg>
