<svg width="0" height="0" class="hidden">
    <symbol viewBox="0 0 21 21" xmlns="http://www.w3.org/2000/svg" id="calendar-2">
        <path d="M7.16663 2.16666V4.66666" stroke-miterlimit="10" stroke-linecap="round" stroke-linejoin="round"/>
        <path d="M3.41663 8.07501H17.5833" stroke-miterlimit="10" stroke-linecap="round" stroke-linejoin="round"/>
        <path d="M18 7.58332V14.6667C18 17.1667 16.75 18.8333 13.8333 18.8333H7.16667C4.25 18.8333 3 17.1667 3 14.6667V7.58332C3 5.08332 4.25 3.41666 7.16667 3.41666H13.8333C16.75 3.41666 18 5.08332 18 7.58332Z" stroke-width="1.5" stroke-miterlimit="10" stroke-linecap="round" stroke-linejoin="round"/>
        <path d="M10.4962 11.9167H10.5037" stroke-width="1.5" stroke-linecap="round" stroke-linejoin="round"/>
        <path d="M7.41197 11.9167H7.41945" stroke-width="1.5" stroke-linecap="round" stroke-linejoin="round"/>
        <path d="M7.41197 14.4167H7.41945" stroke-width="1.5" stroke-linecap="round" stroke-linejoin="round"/>
    </symbol>
    <symbol viewBox="0 0 21 21" xmlns="http://www.w3.org/2000/svg" id="calendar">
        <path d="M7.16663 2.16666V4.66666" stroke-miterlimit="10" stroke-linecap="round" stroke-linejoin="round"/>
        <path d="M3.41663 8.07501H17.5833" stroke-miterlimit="10" stroke-linecap="round" stroke-linejoin="round"/>
        <path d="M18 7.58332V14.6667C18 17.1667 16.75 18.8333 13.8333 18.8333H7.16667C4.25 18.8333 3 17.1667 3 14.6667V7.58332C3 5.08332 4.25 3.41666 7.16667 3.41666H13.8333C16.75 3.41666 18 5.08332 18 7.58332Z" stroke-width="1.5" stroke-miterlimit="10" stroke-linecap="round" stroke-linejoin="round"/>
        <path d="M13.579 11.9167H13.5864" stroke-width="1.5" stroke-linecap="round" stroke-linejoin="round"/>
        <path d="M13.579 14.4167H13.5864" stroke-width="1.5" stroke-linecap="round" stroke-linejoin="round"/>
        <path d="M10.4962 11.9167H10.5037" stroke-width="1.5" stroke-linecap="round" stroke-linejoin="round"/>
        <path d="M10.4962 14.4167H10.5037" stroke-width="1.5" stroke-linecap="round" stroke-linejoin="round"/>
        <path d="M7.41197 11.9167H7.41945" stroke-width="1.5" stroke-linecap="round" stroke-linejoin="round"/>
        <path d="M7.41197 14.4167H7.41945" stroke-width="1.5" stroke-linecap="round" stroke-linejoin="round"/>
    </symbol>
    <symbol viewBox="0 0 21 21" xmlns="http://www.w3.org/2000/svg" id="profile-user">
        <path d="M8.13338 9.55832C8.05005 9.54999 7.95005 9.54999 7.85838 9.55832C5.87505 9.49166 4.30005 7.86666 4.30005 5.86666C4.30005 3.82499 5.95005 2.16666 8.00005 2.16666C10.0417 2.16666 11.7 3.82499 11.7 5.86666C11.6917 7.86666 10.1167 9.49166 8.13338 9.55832Z" stroke-linecap="round" stroke-linejoin="round"/>
        <path d="M14.175 3.83334C15.7916 3.83334 17.0917 5.14168 17.0917 6.75001C17.0917 8.32501 15.8417 9.60834 14.2833 9.66668C14.2167 9.65834 14.1417 9.65834 14.0667 9.66668" stroke-linecap="round" stroke-linejoin="round"/>
        <path d="M3.96672 12.6333C1.95006 13.9833 1.95006 16.1833 3.96672 17.525C6.25839 19.0583 10.0167 19.0583 12.3084 17.525C14.3251 16.175 14.3251 13.975 12.3084 12.6333C10.0251 11.1083 6.26672 11.1083 3.96672 12.6333Z" stroke-linecap="round" stroke-linejoin="round"/>
        <path d="M15.7833 17.1667C16.3833 17.0417 16.95 16.8 17.4167 16.4417C18.7167 15.4667 18.7167 13.8583 17.4167 12.8833C16.9583 12.5333 16.4 12.3 15.8083 12.1667" stroke-linecap="round" stroke-linejoin="round"/>
    </symbol>
    <symbol viewBox="0 0 1 none" xmlns="http://www.w3.org/2000/svg" id="divider">
        <path d="M0.5 0.5L0.499997 58.5" stroke="white" stroke-opacity="0.25"/>
    </symbol>
    <symbol viewBox="0 0 24 24" xmlns="http://www.w3.org/2000/svg" id="room">
        <path d="M12.37 2.15009L21.37 5.75006C21.72 5.89006 22 6.31006 22 6.68006V10.0001C22 10.5501 21.55 11.0001 21 11.0001H3C2.45 11.0001 2 10.5501 2 10.0001V6.68006C2 6.31006 2.28 5.89006 2.63 5.75006L11.63 2.15009C11.83 2.07009 12.17 2.07009 12.37 2.15009Z" stroke-width="1.5" stroke-miterlimit="10" stroke-linecap="round" stroke-linejoin="round"/>
        <path d="M22 22H2V19C2 18.45 2.45 18 3 18H21C21.55 18 22 18.45 22 19V22Z" stroke-width="1.5" stroke-miterlimit="10" stroke-linecap="round" stroke-linejoin="round"/>
        <path d="M4 18V11" stroke-width="1.5" stroke-miterlimit="10" stroke-linecap="round" stroke-linejoin="round"/>
        <path d="M8 18V11" stroke-width="1.5" stroke-miterlimit="10" stroke-linecap="round" stroke-linejoin="round"/>
        <path d="M12 18V11" stroke-width="1.5" stroke-miterlimit="10" stroke-linecap="round" stroke-linejoin="round"/>
        <path d="M16 18V11" stroke-width="1.5" stroke-miterlimit="10" stroke-linecap="round" stroke-linejoin="round"/>
        <path d="M20 18V11" stroke-width="1.5" stroke-miterlimit="10" stroke-linecap="round" stroke-linejoin="round"/>
        <path d="M1 22H23" stroke-width="1.5" stroke-miterlimit="10" stroke-linecap="round" stroke-linejoin="round"/>
        <path d="M12 8.5C12.8284 8.5 13.5 7.82843 13.5 7C13.5 6.17157 12.8284 5.5 12 5.5C11.1716 5.5 10.5 6.17157 10.5 7C10.5 7.82843 11.1716 8.5 12 8.5Z" stroke-width="1.5" stroke-miterlimit="10" stroke-linecap="round" stroke-linejoin="round"/>
    </symbol>
    <symbol viewBox="0 0 20 20" xmlns="http://www.w3.org/2000/svg" id="house">
        <path d="M8.39173 2.85003L2.61673 7.47502C1.96673 7.99169 1.55006 9.08338 1.69172 9.90005L2.80006 16.5334C3.00006 17.7167 4.13339 18.675 5.33339 18.675H14.6667C15.8584 18.675 17.0001 17.7084 17.2001 16.5334L18.3084 9.90005C18.4417 9.08338 18.0251 7.99169 17.3834 7.47502L11.6084 2.85837C10.7167 2.14171 9.27506 2.1417 8.39173 2.85003Z" stroke="white" stroke-linecap="round" stroke-linejoin="round"/>
    </symbol>
    <symbol viewBox="0 0 13 7" xmlns="http://www.w3.org/2000/svg" id="arrow-down">
        <path d="M5.64645 4.64645L1.5 0.5C1.22386 0.223858 0.776142 0.223858 0.5 0.5C0.223858 0.776142 0.223858 1.22386 0.5 1.5L4.79289 5.79289C5.24565 6.24565 5.85971 6.5 6.5 6.5C7.14029 6.5 7.75435 6.24565 8.20711 5.79289L12.5 1.5C12.7761 1.22386 12.7761 0.776142 12.5 0.5C12.2239 0.223858 11.7761 0.223857 11.5 0.5L7.35355 4.64645C7.12718 4.87282 6.82014 5 6.5 5C6.17986 5 5.87282 4.87282 5.64645 4.64645Z"/>
    </symbol>
    <symbol xmlns="http://www.w3.org/2000/svg" viewBox="0 0 47 24" id="MarinaBaySands-logo">
        <path d="M46.6622 0.555H0.0821876C0.0821876 0.555 -0.0378121 0.595 0.0121879 0.685C0.272188 1.175 1.40218 2.605 4.53218 2.605H4.66218C4.66218 2.605 7.70219 2.675 9.08219 5.105C9.18219 5.315 9.29219 5.535 9.39219 5.755C9.41219 5.785 9.42219 5.835 9.44219 5.875C10.2722 7.685 11.0922 9.855 11.6322 12.285C12.9922 18.355 12.6722 22.675 12.6122 23.355C12.6122 23.415 12.6522 23.445 12.7022 23.445H19.4522C19.4522 23.445 19.6222 12.055 17.3222 2.705H20.5022C20.6522 3.545 21.7222 9.835 21.7222 23.445H28.5622C29.1022 10.295 29.9222 3.585 30.0322 2.705H33.2122C31.0222 11.375 30.8422 23.445 30.8422 23.445H37.5922C37.5922 23.445 37.6822 23.415 37.6722 23.355C37.6222 22.655 37.3422 17.955 38.6522 12.285C39.3022 9.455 40.1922 7.065 41.1422 5.205C42.0222 3.465 43.4622 2.775 44.5022 2.505C44.5222 2.505 44.5422 2.495 44.5522 2.485C45.8022 2.135 46.5322 1.075 46.7422 0.675C46.7722 0.635 46.7422 0.555 46.6622 0.555Z" fill="white"/>
    </symbol>
    <symbol xmlns="http://www.w3.org/2000/svg" viewBox="0 0 24 24" id="arrow-right-up-line">
        <path d="M16.0037 9.41421L7.39712 18.0208L5.98291 16.6066L14.5895 8H7.00373V6H18.0037V17H16.0037V9.41421Z">
        </path>
    </symbol>
    <symbol xmlns="http://www.w3.org/2000/svg" viewBox="0 0 18 20" id="theme-toggle-switch">
        <path d="M13.6499 2.79H13.3699C13.2699 2 12.9799 1.37 12.5199 0.9C11.9199 0.3 11.0499 0 9.92986 0H4.34986C2.09986 0 0.859863 1.24 0.859863 3.49C0.859863 4.61 1.15986 5.48 1.75986 6.08C2.35986 6.68 3.22986 6.98 4.34986 6.98H9.92986C11.9299 6.98 13.1299 5.99 13.3699 4.19H13.6499C15.7399 4.19 15.7399 4.47 15.7399 6.28V8.14C15.7399 9.95 15.7399 10.23 13.6499 10.23H9.92986C6.93986 10.23 6.50986 11.65 6.44986 13.03C5.54986 13.09 4.57986 13.51 4.57986 15.11V17.9C4.57986 19.63 5.71986 19.99 6.66986 19.99H7.59986C8.54986 19.99 9.68986 19.63 9.68986 17.9V15.11C9.68986 13.53 8.73986 13.09 7.83986 13.03C7.88986 12.02 8.17986 11.62 9.91986 11.62H13.6399C16.8899 11.62 17.1299 10.3 17.1299 8.13V6.28C17.1399 4.11 16.8999 2.79 13.6499 2.79Z"/>
    </symbol>
    <symbol xmlns="http://www.w3.org/2000/svg" viewBox="0 0 20 20" id="sun">
        <path d="M19.5302 13.93C19.3702 13.66 18.9202 13.24 17.8002 13.44C17.1802 13.55 16.5502 13.6 15.9202 13.57C13.5902 13.47 11.4802 12.4 10.0102 10.75C8.7102 9.29999 7.9102 7.40999 7.9002 5.36999C7.9002 4.22999 8.1202 3.12999 8.5702 2.08999C9.0102 1.07999 8.7002 0.549994 8.4802 0.329994C8.2502 0.0999944 7.7102 -0.220006 6.6502 0.219994C2.5602 1.93999 0.0301965 6.03999 0.330197 10.43C0.630197 14.56 3.5302 18.09 7.3702 19.42C8.2902 19.74 9.2602 19.93 10.2602 19.97C10.4202 19.98 10.5802 19.99 10.7402 19.99C14.0902 19.99 17.2302 18.41 19.2102 15.72C19.8802 14.79 19.7002 14.2 19.5302 13.93Z" fill="#171717"/>
    </symbol>
    <symbol xmlns="http://www.w3.org/2000/svg" viewBox="0 0 16 20" id="mouse">
        <path d="M9.29783 0.115615C9.00639 0.0643281 8.75 0.29687 8.75 0.592786V3.45356C8.75 3.65192 8.87095 3.82658 9.03588 3.93677C9.53908 4.27295 9.87 4.84691 9.87 5.5V7.5C9.87 8.53 9.03 9.38 8 9.38C6.96 9.38 6.12 8.53 6.12 7.5V5.5C6.12 4.84672 6.45831 4.27261 6.96394 3.93647C7.12913 3.82666 7.25 3.65192 7.25 3.45356V0.593428C7.25 0.297282 6.99352 0.0646396 6.70188 0.116066C5.15243 0.38928 3.76579 1.13421 2.7 2.2C1.34 3.56 0.5 5.44 0.5 7.5V12.5C0.5 16.63 3.87 20 8 20C12.13 20 15.5 16.63 15.5 12.5V7.5C15.5 3.80951 12.813 0.734218 9.29783 0.115615Z"/>
    </symbol>
    <symbol xmlns="http://www.w3.org/2000/svg" viewBox="0 0 38 36" id="logo">
        <path d="M6.47389 0H1.01773C0.465444 0 0.0177283 0.446498 0.0177275 0.998783L0.0177283 11.6789C0.0177438 17.5183 -0.731518 16.9874 7.51034 16.9874H17.002C17.5543 16.9874 18 16.5397 18 15.9874V12.5942C18 12.0761 17.6016 11.6427 17.085 11.6032C13.9371 11.3623 12.1964 11.4386 11.3089 11.5376C10.7694 11.5978 10.2696 11.8114 9.77182 12.0278C8.27082 12.6804 5.18551 13.6733 7.51034 9.55543C9.67871 5.71469 8.70946 2.4297 8.00768 0.906725C7.73568 0.316451 7.12381 0 6.47389 0Z"/>
        <path d="M12.9994 19H5.00003C2.23861 19 2.3389e-06 21.2373 2.38289e-06 23.9987L0 35.0025C0 35.5548 0.448338 36 1.00063 36L6.49939 36C7.05167 36 7.5006 35.5535 7.46521 35.0024C7.20951 31.0206 5.67028 25.3418 7.10115 23.59C7.31979 23.3223 7.6823 23.25 8.02791 23.25H9.95144C10.3136 23.25 10.7053 23.2911 10.9337 23.5722C12.2715 25.2185 10.8595 31.7001 10.5552 35.0024C10.5045 35.5523 10.9483 36 11.5006 36L16.9994 36C17.5517 36 18 35.5524 18 35.0001L18 23.9997C18 21.2383 15.7608 19 12.9994 19Z"/>
        <path d="M25 0H21.0017C20.4494 0 20 0.447716 20 1V9.00001C20 13.4183 23.581 17 27.9993 17H30.0001C34.4184 17 38 13.4183 38 9V1C38 0.447715 37.5506 0 36.9983 0H33.0383C30.3411 -4.88453e-06 36 12 29 12C22 12 27.7626 0 25 0Z"/>
        <path d="M21.9723 36H20.8138C20.3652 36 19.9543 35.6902 20.0304 35.2481C20.3685 33.2859 23.4092 30.6028 23.4092 27.5C23.4092 24.3972 20.3685 21.7141 20.0304 19.7519C19.9543 19.3098 20.3652 19 20.8138 19H22.2362C24.4867 19 27.0367 19.5808 27.1739 21.8271C27.306 23.9907 26.7495 26.5 29 26.5C31.2505 26.5 30.694 23.9907 30.8261 21.8272C30.9633 19.5809 33.5133 19 35.7638 19L37.1862 19C37.6348 19 38.0457 19.3098 37.9696 19.7518C37.6315 21.7141 34.5908 24.3972 34.5908 27.5C34.5908 30.6028 37.6315 33.2859 37.9696 35.2481C38.0457 35.6902 37.6348 36 37.1862 36H36.0277C33.6067 36 31.1616 35.2554 30.7924 32.8627C30.5998 31.6148 30.378 30.5 29 30.5C27.622 30.5 27.4002 31.6148 27.2076 32.8627C26.8384 35.2554 24.3933 36 21.9723 36Z"/>
        <path d="M18.3163 4.18368C18.469 2.65403 18.549 1.46359 18.1804 0.42444C18.0966 0.188269 17.5956 0.224273 17.37 0.333256C14.0902 1.9173 11.3111 3.18006 11.0795 6.81494C11.0555 7.19116 11.0337 7.57381 11.019 7.9779C10.9985 8.54193 11.4591 9.00548 12.0212 8.95477C12.5795 8.90441 13.0702 8.81679 13.5098 8.71653C15.247 8.32028 18.1393 5.95668 18.3163 4.18368Z"/>
    </symbol>
    <symbol xmlns="http://www.w3.org/2000/svg" viewBox="0 0 50 50" id="logo-lunx">
        <path d="M8.81336 0H1.02333C0.471042 0 0.0233267 0.446196 0.0233262 0.998481L0.0233268 16.2206C0.0233472 24.331 -0.962523 23.5937 9.88203 23.5937H22.6852C23.2375 23.5937 23.6842 23.1459 23.6842 22.5937V17.1315C23.6842 16.6153 23.288 16.183 22.7736 16.1397C18.1502 15.7512 15.7603 15.9006 14.6513 16.0537C14.0941 16.1306 13.5825 16.3616 13.0748 16.6037C11.2039 17.4957 6.70596 19.2096 9.88203 13.2714C12.8905 7.64658 11.3087 2.87996 10.3894 0.935821C10.104 0.332129 9.48113 0 8.81336 0Z"/>
        <path d="M18.6834 26.3889L5.0001 26.3889C2.23868 26.3889 2.47609e-06 28.6261 2.96046e-06 31.3875L0 49.0035C0 49.5558 0.44843 50 1.00072 50L8.86772 49.9999C9.42 49.9999 9.86942 49.554 9.84359 49.0024C9.57969 43.3663 7.3426 34.9762 9.44487 32.6425C9.68686 32.3739 10.0603 32.2916 10.4219 32.2916H13.2386C13.6192 32.2916 14.0252 32.3406 14.2847 32.619C16.2715 34.7497 14.1829 44.4797 13.8572 49.005C13.8175 49.5558 14.2642 50 14.8165 50L22.6835 50C23.2358 50 23.6842 49.5553 23.6842 49.003L23.6842 31.386C23.6842 28.6246 21.4449 26.3889 18.6834 26.3889Z"/>
        <path d="M32.8947 0H27.318C26.7657 0 26.3158 0.447716 26.3158 1V15.6111C26.3158 20.0294 29.895 23.6111 34.3133 23.6111H42.0024C46.4206 23.6111 50 20.0294 50 15.6111V1C50 0.447716 49.5501 0 48.9978 0H43.4714C39.9224 -6.78407e-06 47.3684 16.6667 38.1579 16.6667C28.9474 16.6667 36.5298 0 32.8947 0Z"/>
        <path d="M29.8861 50H27.1576C26.704 50 26.2906 49.6894 26.3226 49.2369C26.517 46.4893 30.8015 42.654 30.8015 38.1944C30.8015 33.7348 26.517 29.8995 26.3226 27.152C26.2906 26.6994 26.704 26.3889 27.1576 26.3889H30.1611C32.5238 26.3889 35.258 26.9072 35.6418 29.2386C36.1643 32.4128 34.8335 36.8055 38.1579 36.8055C41.4823 36.8055 40.1516 32.4129 40.674 29.2386C41.0578 26.9072 43.7921 26.3889 46.1548 26.3889L49.1582 26.3889C49.6118 26.3889 50.0252 26.6994 49.9932 27.152C49.7988 29.8995 45.5143 33.7348 45.5143 38.1944C45.5143 42.654 49.7988 46.4893 49.9932 49.2369C50.0252 49.6894 49.6118 50 49.1582 50H46.4297C43.89 50 41.138 49.3095 40.6954 46.8087C40.3175 44.6727 40.3734 42.3611 38.1579 42.3611C35.9424 42.3611 35.9983 44.6727 35.6204 46.8087C35.1778 49.3095 32.4258 50 29.8861 50Z"/>
        <path d="M23.3933 0.126815C23.5065 0.0981074 23.614 0.069016 23.7154 0.0383438C23.7772 0.019662 23.841 0.0657037 23.8455 0.130113C23.8762 0.577391 23.8986 0.99769 23.9136 1.3929C24.1015 6.35302 20.9469 11.0201 16.2815 12.7148C16.1659 12.7568 16.0521 12.7958 15.9403 12.8318C15.6198 12.9348 15.142 11.4553 15.1048 11.1208C14.481 5.50893 17.9203 1.51543 23.3933 0.126815Z"/>
    </symbol>
    <symbol xmlns="http://www.w3.org/2000/svg" viewBox="0 0 43 43" id="logo-lunix">
        <path d="M7.42987 0H1.02006C0.467776 0 0.020061 0.44698 0.0200603 0.999265L0.020061 13.9498C0.0200786 20.9246 -0.82777 20.2905 8.49855 20.2905H19.3711C19.9234 20.2905 20.3684 19.8428 20.3684 19.2905V14.8606C20.3684 14.3444 19.9719 13.9119 19.4574 13.8695C15.7183 13.5615 13.7057 13.6666 12.7167 13.7908C12.1585 13.8609 11.647 14.0919 11.1372 14.3297C9.47162 15.1068 5.826 16.4102 8.49855 11.4134C11.018 6.70297 9.79412 2.69236 8.99822 0.941378C8.72189 0.333459 8.09765 0 7.42987 0Z"/>
        <path d="M15.3677 22.6944H5.00003C2.2386 22.6944 2.36455e-06 24.9325 2.64187e-06 27.6939L0 42.0003C0 42.5526 0.448545 43 1.00083 42.9999L7.48602 42.9999C8.0383 42.9999 8.48765 42.5521 8.45842 42.0006C8.24426 37.9601 6.90846 32.3542 7.50933 29.4513C7.77496 28.1679 9.10508 27.7708 10.4156 27.7708C11.3353 27.7708 12.4214 27.9594 12.7126 28.8318C13.6213 31.5545 12.206 38.4761 11.9276 42.0054C11.8842 42.556 12.3301 43 12.8824 43L19.3676 43C19.9199 43 20.3684 42.5545 20.3684 42.0022L20.3684 27.6922C20.3684 24.9308 18.1291 22.6944 15.3677 22.6944Z"/>
        <path d="M28.2895 0H23.632C23.0797 0 22.6316 0.447716 22.6316 1V12.3056C22.6316 16.7238 26.2128 20.3056 30.6311 20.3056H35.0013C39.4195 20.3056 43 16.7238 43 12.3056V1C43 0.447716 42.5519 0 41.9996 0H37.3854C34.3333 -5.8343e-06 40.7369 14.3333 32.8158 14.3333C24.8947 14.3333 31.4156 0 28.2895 0Z"/>
        <path d="M25.162 43H23.4638C23.0101 43 22.5962 42.6874 22.6473 42.2366C22.9144 39.8816 26.4893 36.6249 26.4893 32.8472C26.4893 29.0695 22.9144 25.8127 22.6473 23.4577C22.5962 23.0069 23.0101 22.6944 23.4638 22.6944H25.4371C27.7998 22.6944 30.4846 23.2907 30.7163 25.642C30.9794 28.3107 30.1267 31.6527 32.8158 31.6527C35.5048 31.6527 34.6523 28.3108 34.9153 25.6421C35.147 23.2907 37.8319 22.6944 40.1946 22.6944L42.1678 22.6944C42.6215 22.6944 43.0354 23.0069 42.9843 23.4577C42.7172 25.8127 39.1423 29.0695 39.1423 32.8472C39.1423 36.6249 42.7172 39.8816 42.9843 42.2366C43.0354 42.6874 42.6215 43 42.1678 43H40.4696C37.9299 43 35.2862 42.234 34.9124 39.7219C34.6642 38.0537 34.5374 36.4305 32.8158 36.4305C31.0942 36.4305 30.9674 38.0537 30.7192 39.7219C30.3454 42.234 27.7017 43 25.162 43Z"/>
        <path d="M20.1182 0.109061C20.2156 0.0843725 20.308 0.0593538 20.3953 0.0329757C20.4484 0.0169093 20.5033 0.0565051 20.5071 0.111897C20.5335 0.496556 20.5528 0.858014 20.5657 1.1979C20.7273 5.4636 18.0143 9.47725 14.0021 10.9347C13.9027 10.9708 13.8048 11.0044 13.7086 11.0353C13.4331 11.1239 13.0221 9.85158 12.9901 9.56389C12.4537 4.73768 15.4114 1.30327 20.1182 0.109061Z" fill="#E92038"/>
    </symbol>
    <symbol xmlns="http://www.w3.org/2000/svg" viewBox="0 0 25 24" id="notification">
        <path d="M12.0357 20.53C9.70574 20.53 7.37574 20.16 5.16574 19.42C4.32574 19.13 3.68574 18.54 3.40574 17.77C3.11574 17 3.21574 16.15 3.67574 15.39L4.82574 13.48C5.06574 13.08 5.28574 12.28 5.28574 11.81V8.92004C5.28574 5.20004 8.31574 2.17004 12.0357 2.17004C15.7557 2.17004 18.7857 5.20004 18.7857 8.92004V11.81C18.7857 12.27 19.0057 13.08 19.2457 13.49L20.3857 15.39C20.8157 16.11 20.8957 16.98 20.6057 17.77C20.3157 18.56 19.6857 19.16 18.8957 19.42C16.6957 20.16 14.3657 20.53 12.0357 20.53ZM12.0357 3.67004C9.14574 3.67004 6.78574 6.02004 6.78574 8.92004V11.81C6.78574 12.54 6.48574 13.62 6.11574 14.25L4.96574 16.16C4.74574 16.53 4.68574 16.92 4.81574 17.25C4.93574 17.59 5.23574 17.85 5.64574 17.99C9.82574 19.39 14.2557 19.39 18.4357 17.99C18.7957 17.87 19.0757 17.6 19.2057 17.24C19.3357 16.88 19.3057 16.49 19.1057 16.16L17.9557 14.25C17.5757 13.6 17.2857 12.53 17.2857 11.8V8.92004C17.2857 6.02004 14.9357 3.67004 12.0357 3.67004Z"/>
        <path d="M13.8957 3.94005C13.8257 3.94005 13.7557 3.93005 13.6857 3.91005C13.3957 3.83005 13.1157 3.77005 12.8457 3.73005C11.9957 3.62005 11.1757 3.68005 10.4057 3.91005C10.1257 4.00005 9.82574 3.91005 9.63574 3.70005C9.44574 3.49005 9.38574 3.19005 9.49574 2.92005C9.90574 1.87005 10.9057 1.18005 12.0457 1.18005C13.1857 1.18005 14.1857 1.86005 14.5957 2.92005C14.6957 3.19005 14.6457 3.49005 14.4557 3.70005C14.3057 3.86005 14.0957 3.94005 13.8957 3.94005Z"/>
        <path d="M12.0356 22.8101C11.0456 22.8101 10.0856 22.4101 9.38564 21.7101C8.68564 21.0101 8.28564 20.0501 8.28564 19.0601H9.78564C9.78564 19.6501 10.0256 20.2301 10.4456 20.6501C10.8656 21.0701 11.4456 21.3101 12.0356 21.3101C13.2756 21.3101 14.2856 20.3001 14.2856 19.0601H15.7856C15.7856 21.1301 14.1056 22.8101 12.0356 22.8101Z"/>
    </symbol>
    <symbol xmlns="http://www.w3.org/2000/svg" viewBox="0 0 24 24" id="send">
        <path d="M7.40018 6.31991L15.8902 3.48991C19.7002 2.21991 21.7702 4.29991 20.5102 8.10991L17.6802 16.5999C15.7802 22.3099 12.6602 22.3099 10.7602 16.5999L9.92018 14.0799L7.40018 13.2399C1.69018 11.3399 1.69018 8.22991 7.40018 6.31991Z" stroke="#D0D0D0" stroke-width="1.5" stroke-linecap="round" stroke-linejoin="round"/>
        <path d="M10.1099 13.6501L13.6899 10.0601" stroke="#D0D0D0" stroke-width="1.5" stroke-linecap="round" stroke-linejoin="round"/>
    </symbol>
    <symbol xmlns="http://www.w3.org/2000/svg" viewBox="0 0 20 20" id="arrow-box">
        <path d="M16.16,0H3.84C1.72,0,0,1.72,0,3.84v12.33c0,2.12,1.72,3.84,3.84,3.84h12.33c2.12,0,3.84-1.72,3.84-3.84V3.84c0-2.12-1.72-3.84-3.84-3.84ZM15.84,10.68l-5.48,5.48c-.38.38-.99.38-1.37,0-.19-.19-.28-.44-.28-.68s.09-.5.28-.68l3.83-3.83h-7.99c-.53,0-.97-.43-.97-.96,0-.27.11-.51.28-.68.18-.17.42-.28.68-.28h7.99l-3.82-3.82c-.38-.38-.38-.99,0-1.37.19-.19.44-.28.68-.28s.49.1.68.28l5.48,5.48c.38.38.38.99,0,1.37Z"/>
    </symbol>
    <symbol xmlns="http://www.w3.org/2000/svg" viewBox="0 0 25 25" id="arrow">
        <path d="M25,2.5v20.01c0,1.38-1.12,2.5-2.5,2.5h0c-1.38,0-2.5-1.12-2.5-2.5v-13.97s-14.59,14.59-14.59,14.59c-.97.97-2.56.97-3.53,0h0c-.97-.97-.97-2.55,0-3.53l14.59-14.59H2.5c-1.38,0-2.5-1.12-2.5-2.5h0C0,1.12,1.12,0,2.5,0h20.01c1.38,0,2.5,1.12,2.5,2.5Z"/>
    </symbol>
    <symbol xmlns="http://www.w3.org/2000/svg" viewBox="0 0 104 23" id="logov2">
        <path d="M103.105 0.828279C102.84 3.49408 98.7752 7.19043 98.7752 11.4808C98.7752 15.7712 102.84 19.4697 103.105 22.1334C103.154 22.621 102.709 22.9595 102.221 22.9595H100.086C97.3474 22.9595 94.4599 22.1526 94.0398 19.4399C93.7407 17.4895 93.6537 15.5306 91.6509 15.5306C89.6481 15.5306 89.5632 17.4895 89.2599 19.4399C88.844 22.1526 85.9565 22.9595 83.2175 22.9595H81.0832C80.5974 22.9595 80.1497 22.621 80.1985 22.1334C80.4637 19.4697 84.5287 15.7755 84.5287 11.4808C84.5287 7.18617 80.4637 3.49621 80.1985 0.828279C80.1497 0.340685 80.5952 0.00213623 81.0832 0.00213623H83.5146C86.0605 0.00213623 88.9756 0.623873 89.2705 3.16192C89.6226 6.2046 88.5682 10.1309 91.653 10.1309C94.7378 10.1309 93.6813 6.2046 94.0356 3.16192C94.3284 0.626002 97.2434 0.00213623 99.7915 0.00213623H102.223C102.709 0.00213623 103.156 0.340685 103.108 0.828279H103.105Z" />
        <path d="M1.20295 0.00244141H3.13573C5.62225 0.00244141 7.63777 2.02521 7.63777 4.52068V14.0554C7.63777 14.7602 8.20848 15.3329 8.91073 15.3329H18.4113C20.8978 15.3329 22.9133 17.3557 22.9133 19.8512V21.7909C22.9133 22.4573 22.3744 22.9982 21.7104 22.9982H6.67032C2.98509 22.9982 0 20.0002 0 16.3039V1.20972C0 0.543267 0.538887 0.00244141 1.20295 0.00244141Z" />
        <path d="M13.6864 10.3183C13.4275 9.00241 13.0478 3.80921 21.9373 0.123505C22.1049 0.0532401 22.3001 0.134151 22.368 0.30449C22.9705 1.82263 25.0051 8.62128 14.0661 10.578C13.89 10.61 13.7203 10.4929 13.6864 10.3183Z" />
        <path d="M35.4711 22.9979H40.9427C42.3175 22.9979 43.688 22.7083 44.9122 22.078C46.1364 21.4478 47.1038 20.5705 47.8188 19.6443C49.0366 18.0666 49.6455 16.0991 49.6455 14.1019V1.252C49.6455 0.562125 49.0875 0.00213623 48.4001 0.00213623H43.6265C42.8076 0.00213623 42.1626 0.702654 42.222 1.52241C42.8097 9.56666 43.9108 16.1843 38.1888 16.1843C32.4669 16.1843 33.568 9.56666 34.1557 1.52241C34.2151 0.702654 33.5701 0.00213623 32.7512 0.00213623H27.9776C27.2902 0.00213623 26.7322 0.562125 26.7322 1.252V14.1552C26.7322 15.3518 26.9465 16.542 27.409 17.645C28.1621 19.4378 29.6048 21.4009 32.399 22.4613C33.377 22.8318 34.423 23 35.4689 23L35.4711 22.9979Z" />
        <path d="M62.2032 0.00212923H67.6749C69.0497 0.00212923 70.4202 0.291705 71.6444 0.921959C72.8685 1.55221 73.836 2.42946 74.551 3.35567C75.7688 4.93344 76.3777 6.90085 76.3777 8.89807V21.748C76.3777 22.4379 75.8197 22.9979 75.1323 22.9979H70.3587C69.5397 22.9979 68.8948 22.2973 68.9542 21.4776C69.5419 13.4333 70.643 6.81568 64.921 6.81568C59.199 6.81568 60.3002 13.4333 60.8878 21.4776C60.9472 22.2973 60.3023 22.9979 59.4833 22.9979H54.7097C54.0223 22.9979 53.4644 22.4379 53.4644 21.748V8.84484C53.4644 7.64821 53.6786 6.45797 54.1411 5.35502C54.8943 3.56221 56.337 1.59905 59.1312 0.538696C60.1092 0.168209 61.1552 0 62.2011 0L62.2032 0.00212923Z" />
    </symbol>
    <symbol xmlns="http://www.w3.org/2000/svg" viewBox="0 0 5 5" id="dot">
        <path d="M2.5 0C3.88071 0 5 1.11929 5 2.5C5 3.88071 3.88071 5 2.5 5C1.11929 5 0 3.88071 0 2.5C0 1.11929 1.11929 0 2.5 0Z"/>
    </symbol>

</svg>