<?xml version="1.0" encoding="UTF-8"?>
<svg id="_Слой_1" data-name="Слой_1" xmlns="http://www.w3.org/2000/svg" viewBox="0 0 20 20">
  <path d="M16.16,0H3.84C1.72,0,0,1.72,0,3.84v12.33c0,2.12,1.72,3.84,3.84,3.84h12.33c2.12,0,3.84-1.72,3.84-3.84V3.84c0-2.12-1.72-3.84-3.84-3.84ZM15.84,10.68l-5.48,5.48c-.38.38-.99.38-1.37,0-.19-.19-.28-.44-.28-.68s.09-.5.28-.68l3.83-3.83h-7.99c-.53,0-.97-.43-.97-.96,0-.27.11-.51.28-.68.18-.17.42-.28.68-.28h7.99l-3.82-3.82c-.38-.38-.38-.99,0-1.37.19-.19.44-.28.68-.28s.49.1.68.28l5.48,5.48c.38.38.38.99,0,1.37Z"/>
</svg>