<svg width="50" height="50" viewBox="0 0 50 50" fill="none" xmlns="http://www.w3.org/2000/svg">
<path d="M8.81336 0H1.02333C0.471042 0 0.0233267 0.446196 0.0233262 0.998481L0.0233268 16.2206C0.0233472 24.331 -0.962523 23.5937 9.88203 23.5937H22.6852C23.2375 23.5937 23.6842 23.1459 23.6842 22.5937V17.1315C23.6842 16.6153 23.288 16.183 22.7736 16.1397C18.1502 15.7512 15.7603 15.9006 14.6513 16.0537C14.0941 16.1306 13.5825 16.3616 13.0748 16.6037C11.2039 17.4957 6.70596 19.2096 9.88203 13.2714C12.8905 7.64658 11.3087 2.87996 10.3894 0.935821C10.104 0.332129 9.48113 0 8.81336 0Z"/>
<path d="M18.6834 26.3889L5.0001 26.3889C2.23868 26.3889 2.47609e-06 28.6261 2.96046e-06 31.3875L0 49.0035C0 49.5558 0.44843 50 1.00072 50L8.86772 49.9999C9.42 49.9999 9.86942 49.554 9.84359 49.0024C9.57969 43.3663 7.3426 34.9762 9.44487 32.6425C9.68686 32.3739 10.0603 32.2916 10.4219 32.2916H13.2386C13.6192 32.2916 14.0252 32.3406 14.2847 32.619C16.2715 34.7497 14.1829 44.4797 13.8572 49.005C13.8175 49.5558 14.2642 50 14.8165 50L22.6835 50C23.2358 50 23.6842 49.5553 23.6842 49.003L23.6842 31.386C23.6842 28.6246 21.4449 26.3889 18.6834 26.3889Z"/>
<path d="M32.8947 0H27.318C26.7657 0 26.3158 0.447716 26.3158 1V15.6111C26.3158 20.0294 29.895 23.6111 34.3133 23.6111H42.0024C46.4206 23.6111 50 20.0294 50 15.6111V1C50 0.447716 49.5501 0 48.9978 0H43.4714C39.9224 -6.78407e-06 47.3684 16.6667 38.1579 16.6667C28.9474 16.6667 36.5298 0 32.8947 0Z"/>
<path d="M29.8861 50H27.1576C26.704 50 26.2906 49.6894 26.3226 49.2369C26.517 46.4893 30.8015 42.654 30.8015 38.1944C30.8015 33.7348 26.517 29.8995 26.3226 27.152C26.2906 26.6994 26.704 26.3889 27.1576 26.3889H30.1611C32.5238 26.3889 35.258 26.9072 35.6418 29.2386C36.1643 32.4128 34.8335 36.8055 38.1579 36.8055C41.4823 36.8055 40.1516 32.4129 40.674 29.2386C41.0578 26.9072 43.7921 26.3889 46.1548 26.3889L49.1582 26.3889C49.6118 26.3889 50.0252 26.6994 49.9932 27.152C49.7988 29.8995 45.5143 33.7348 45.5143 38.1944C45.5143 42.654 49.7988 46.4893 49.9932 49.2369C50.0252 49.6894 49.6118 50 49.1582 50H46.4297C43.89 50 41.138 49.3095 40.6954 46.8087C40.3175 44.6727 40.3734 42.3611 38.1579 42.3611C35.9424 42.3611 35.9983 44.6727 35.6204 46.8087C35.1778 49.3095 32.4258 50 29.8861 50Z"/>
<path d="M23.3933 0.126815C23.5065 0.0981074 23.614 0.069016 23.7154 0.0383438C23.7772 0.019662 23.841 0.0657037 23.8455 0.130113C23.8762 0.577391 23.8986 0.99769 23.9136 1.3929C24.1015 6.35302 20.9469 11.0201 16.2815 12.7148C16.1659 12.7568 16.0521 12.7958 15.9403 12.8318C15.6198 12.9348 15.142 11.4553 15.1048 11.1208C14.481 5.50893 17.9203 1.51543 23.3933 0.126815Z"/>
</svg>
