<svg width="43" height="43" viewBox="0 0 43 43" fill="none" xmlns="http://www.w3.org/2000/svg">
<path d="M7.42987 0H1.02006C0.467776 0 0.020061 0.44698 0.0200603 0.999265L0.020061 13.9498C0.0200786 20.9246 -0.82777 20.2905 8.49855 20.2905H19.3711C19.9234 20.2905 20.3684 19.8428 20.3684 19.2905V14.8606C20.3684 14.3444 19.9719 13.9119 19.4574 13.8695C15.7183 13.5615 13.7057 13.6666 12.7167 13.7908C12.1585 13.8609 11.647 14.0919 11.1372 14.3297C9.47162 15.1068 5.826 16.4102 8.49855 11.4134C11.018 6.70297 9.79412 2.69236 8.99822 0.941378C8.72189 0.333459 8.09765 0 7.42987 0Z" fill="#D9D9D9"/>
<path d="M15.3677 22.6944H5.00003C2.2386 22.6944 2.36455e-06 24.9325 2.64187e-06 27.6939L0 42.0003C0 42.5526 0.448545 43 1.00083 42.9999L7.48602 42.9999C8.0383 42.9999 8.48765 42.5521 8.45842 42.0006C8.24426 37.9601 6.90846 32.3542 7.50933 29.4513C7.77496 28.1679 9.10508 27.7708 10.4156 27.7708C11.3353 27.7708 12.4214 27.9594 12.7126 28.8318C13.6213 31.5545 12.206 38.4761 11.9276 42.0054C11.8842 42.556 12.3301 43 12.8824 43L19.3676 43C19.9199 43 20.3684 42.5545 20.3684 42.0022L20.3684 27.6922C20.3684 24.9308 18.1291 22.6944 15.3677 22.6944Z" fill="#D9D9D9"/>
<path d="M28.2895 0H23.632C23.0797 0 22.6316 0.447716 22.6316 1V12.3056C22.6316 16.7238 26.2128 20.3056 30.6311 20.3056H35.0013C39.4195 20.3056 43 16.7238 43 12.3056V1C43 0.447716 42.5519 0 41.9996 0H37.3854C34.3333 -5.8343e-06 40.7369 14.3333 32.8158 14.3333C24.8947 14.3333 31.4156 0 28.2895 0Z" fill="#D9D9D9"/>
<path d="M25.162 43H23.4638C23.0101 43 22.5962 42.6874 22.6473 42.2366C22.9144 39.8816 26.4893 36.6249 26.4893 32.8472C26.4893 29.0695 22.9144 25.8127 22.6473 23.4577C22.5962 23.0069 23.0101 22.6944 23.4638 22.6944H25.4371C27.7998 22.6944 30.4846 23.2907 30.7163 25.642C30.9794 28.3107 30.1267 31.6527 32.8158 31.6527C35.5048 31.6527 34.6523 28.3108 34.9153 25.6421C35.147 23.2907 37.8319 22.6944 40.1946 22.6944L42.1678 22.6944C42.6215 22.6944 43.0354 23.0069 42.9843 23.4577C42.7172 25.8127 39.1423 29.0695 39.1423 32.8472C39.1423 36.6249 42.7172 39.8816 42.9843 42.2366C43.0354 42.6874 42.6215 43 42.1678 43H40.4696C37.9299 43 35.2862 42.234 34.9124 39.7219C34.6642 38.0537 34.5374 36.4305 32.8158 36.4305C31.0942 36.4305 30.9674 38.0537 30.7192 39.7219C30.3454 42.234 27.7017 43 25.162 43Z" fill="#D9D9D9"/>
<path d="M20.1182 0.109061C20.2156 0.0843725 20.308 0.0593538 20.3953 0.0329757C20.4484 0.0169093 20.5033 0.0565051 20.5071 0.111897C20.5335 0.496556 20.5528 0.858014 20.5657 1.1979C20.7273 5.4636 18.0143 9.47725 14.0021 10.9347C13.9027 10.9708 13.8048 11.0044 13.7086 11.0353C13.4331 11.1239 13.0221 9.85158 12.9901 9.56389C12.4537 4.73768 15.4114 1.30327 20.1182 0.109061Z" fill="#28C92F"/>
</svg>
