<svg width="104" height="23" viewBox="0 0 104 23" fill="none" xmlns="http://www.w3.org/2000/svg">
<path d="M103.105 0.828279C102.84 3.49408 98.7752 7.19043 98.7752 11.4808C98.7752 15.7712 102.84 19.4697 103.105 22.1334C103.154 22.621 102.709 22.9595 102.221 22.9595H100.086C97.3474 22.9595 94.4599 22.1526 94.0398 19.4399C93.7407 17.4895 93.6537 15.5306 91.6509 15.5306C89.6481 15.5306 89.5632 17.4895 89.2599 19.4399C88.844 22.1526 85.9565 22.9595 83.2175 22.9595H81.0832C80.5974 22.9595 80.1497 22.621 80.1985 22.1334C80.4637 19.4697 84.5287 15.7755 84.5287 11.4808C84.5287 7.18617 80.4637 3.49621 80.1985 0.828279C80.1497 0.340685 80.5952 0.00213623 81.0832 0.00213623H83.5146C86.0605 0.00213623 88.9756 0.623873 89.2705 3.16192C89.6226 6.2046 88.5682 10.1309 91.653 10.1309C94.7378 10.1309 93.6813 6.2046 94.0356 3.16192C94.3284 0.626002 97.2434 0.00213623 99.7915 0.00213623H102.223C102.709 0.00213623 103.156 0.340685 103.108 0.828279H103.105Z" fill="#D7D7D7"/>
<path d="M1.20295 0.00244141H3.13573C5.62225 0.00244141 7.63777 2.02521 7.63777 4.52068V14.0554C7.63777 14.7602 8.20848 15.3329 8.91073 15.3329H18.4113C20.8978 15.3329 22.9133 17.3557 22.9133 19.8512V21.7909C22.9133 22.4573 22.3744 22.9982 21.7104 22.9982H6.67032C2.98509 22.9982 0 20.0002 0 16.3039V1.20972C0 0.543267 0.538887 0.00244141 1.20295 0.00244141Z" fill="#D7D7D7"/>
<path d="M13.6864 10.3183C13.4275 9.00241 13.0478 3.80921 21.9373 0.123505C22.1049 0.0532401 22.3001 0.134151 22.368 0.30449C22.9705 1.82263 25.0051 8.62128 14.0661 10.578C13.89 10.61 13.7203 10.4929 13.6864 10.3183Z" fill="#D7D7D7"/>
<path d="M35.4711 22.9979H40.9427C42.3175 22.9979 43.688 22.7083 44.9122 22.078C46.1364 21.4478 47.1038 20.5705 47.8188 19.6443C49.0366 18.0666 49.6455 16.0991 49.6455 14.1019V1.252C49.6455 0.562125 49.0875 0.00213623 48.4001 0.00213623H43.6265C42.8076 0.00213623 42.1626 0.702654 42.222 1.52241C42.8097 9.56666 43.9108 16.1843 38.1888 16.1843C32.4669 16.1843 33.568 9.56666 34.1557 1.52241C34.2151 0.702654 33.5701 0.00213623 32.7512 0.00213623H27.9776C27.2902 0.00213623 26.7322 0.562125 26.7322 1.252V14.1552C26.7322 15.3518 26.9465 16.542 27.409 17.645C28.1621 19.4378 29.6048 21.4009 32.399 22.4613C33.377 22.8318 34.423 23 35.4689 23L35.4711 22.9979Z" fill="#D7D7D7"/>
<path d="M62.2032 0.00212923H67.6749C69.0497 0.00212923 70.4202 0.291705 71.6444 0.921959C72.8685 1.55221 73.836 2.42946 74.551 3.35567C75.7688 4.93344 76.3777 6.90085 76.3777 8.89807V21.748C76.3777 22.4379 75.8197 22.9979 75.1323 22.9979H70.3587C69.5397 22.9979 68.8948 22.2973 68.9542 21.4776C69.5419 13.4333 70.643 6.81568 64.921 6.81568C59.199 6.81568 60.3002 13.4333 60.8878 21.4776C60.9472 22.2973 60.3023 22.9979 59.4833 22.9979H54.7097C54.0223 22.9979 53.4644 22.4379 53.4644 21.748V8.84484C53.4644 7.64821 53.6786 6.45797 54.1411 5.35502C54.8943 3.56221 56.337 1.59905 59.1312 0.538696C60.1092 0.168209 61.1552 0 62.2011 0L62.2032 0.00212923Z" fill="#D7D7D7"/>
</svg>
