<svg width="25" height="24" viewBox="0 0 25 24" fill="none" xmlns="http://www.w3.org/2000/svg">
<path d="M12.0357 20.53C9.70574 20.53 7.37574 20.16 5.16574 19.42C4.32574 19.13 3.68574 18.54 3.40574 17.77C3.11574 17 3.21574 16.15 3.67574 15.39L4.82574 13.48C5.06574 13.08 5.28574 12.28 5.28574 11.81V8.92004C5.28574 5.20004 8.31574 2.17004 12.0357 2.17004C15.7557 2.17004 18.7857 5.20004 18.7857 8.92004V11.81C18.7857 12.27 19.0057 13.08 19.2457 13.49L20.3857 15.39C20.8157 16.11 20.8957 16.98 20.6057 17.77C20.3157 18.56 19.6857 19.16 18.8957 19.42C16.6957 20.16 14.3657 20.53 12.0357 20.53ZM12.0357 3.67004C9.14574 3.67004 6.78574 6.02004 6.78574 8.92004V11.81C6.78574 12.54 6.48574 13.62 6.11574 14.25L4.96574 16.16C4.74574 16.53 4.68574 16.92 4.81574 17.25C4.93574 17.59 5.23574 17.85 5.64574 17.99C9.82574 19.39 14.2557 19.39 18.4357 17.99C18.7957 17.87 19.0757 17.6 19.2057 17.24C19.3357 16.88 19.3057 16.49 19.1057 16.16L17.9557 14.25C17.5757 13.6 17.2857 12.53 17.2857 11.8V8.92004C17.2857 6.02004 14.9357 3.67004 12.0357 3.67004Z" fill="#171717"/>
<path d="M13.8957 3.94005C13.8257 3.94005 13.7557 3.93005 13.6857 3.91005C13.3957 3.83005 13.1157 3.77005 12.8457 3.73005C11.9957 3.62005 11.1757 3.68005 10.4057 3.91005C10.1257 4.00005 9.82574 3.91005 9.63574 3.70005C9.44574 3.49005 9.38574 3.19005 9.49574 2.92005C9.90574 1.87005 10.9057 1.18005 12.0457 1.18005C13.1857 1.18005 14.1857 1.86005 14.5957 2.92005C14.6957 3.19005 14.6457 3.49005 14.4557 3.70005C14.3057 3.86005 14.0957 3.94005 13.8957 3.94005Z" fill="#171717"/>
<path d="M12.0356 22.8101C11.0456 22.8101 10.0856 22.4101 9.38564 21.7101C8.68564 21.0101 8.28564 20.0501 8.28564 19.0601H9.78564C9.78564 19.6501 10.0256 20.2301 10.4456 20.6501C10.8656 21.0701 11.4456 21.3101 12.0356 21.3101C13.2756 21.3101 14.2856 20.3001 14.2856 19.0601H15.7856C15.7856 21.1301 14.1056 22.8101 12.0356 22.8101Z" fill="#171717"/>
</svg>
